<?xml version="1.0" encoding="UTF-8"?>
<!DOCTYPE svg PUBLIC "-//W3C//DTD SVG 1.1//EN" "http://www.w3.org/Graphics/SVG/1.1/DTD/svg11.dtd">
<svg xmlns="http://www.w3.org/2000/svg" version="1.1" width="171px" height="36px" style="shape-rendering:geometricPrecision; text-rendering:geometricPrecision; image-rendering:optimizeQuality; fill-rule:evenodd; clip-rule:evenodd" xmlns:xlink="http://www.w3.org/1999/xlink">
<g><path style="opacity:0.641" fill="#8277ff" d="M 26.5,8.5 C 25.5,8.5 24.5,8.5 23.5,8.5C 23.1667,8.5 22.8333,8.5 22.5,8.5C 17.4829,4.8784 12.1496,4.54507 6.5,7.5C 5.16667,7.5 3.83333,7.5 2.5,7.5C 5.50652,3.66887 9.50652,2.0022 14.5,2.5C 19.9828,1.90727 23.9828,3.90727 26.5,8.5 Z"/></g>
<g><path style="opacity:0.756" fill="#fefffe" d="M 40.5,7.5 C 46.1764,7.33391 51.8431,7.50058 57.5,8C 59.0368,9.10963 59.7035,10.6096 59.5,12.5C 57.2841,12.7254 55.6174,11.8921 54.5,10C 50.0998,9.02226 45.9331,9.52226 42,11.5C 41.2585,14.562 41.4252,17.562 42.5,20.5C 46.8333,21.8333 51.1667,21.8333 55.5,20.5C 55.8333,19.8333 56.1667,19.1667 56.5,18.5C 53.9135,17.52 51.2469,17.1866 48.5,17.5C 48.5,16.5 48.5,15.5 48.5,14.5C 52.1667,14.5 55.8333,14.5 59.5,14.5C 60.6481,22.5266 57.1481,25.8599 49,24.5C 41.7375,25.9052 37.9042,23.0719 37.5,16C 37.8219,12.8519 38.8219,10.0186 40.5,7.5 Z"/></g>
<g><path style="opacity:0.884" fill="#fefffe" d="M 80.5,7.5 C 81.5,7.5 82.5,7.5 83.5,7.5C 83.5,13.1667 83.5,18.8333 83.5,24.5C 82.5,24.5 81.5,24.5 80.5,24.5C 80.5,18.8333 80.5,13.1667 80.5,7.5 Z"/></g>
<g><path style="opacity:0.45" fill="#fefffe" d="M 122.5,7.5 C 123.833,7.5 125.167,7.5 126.5,7.5C 126.5,8.5 126.5,9.5 126.5,10.5C 125.167,10.5 123.833,10.5 122.5,10.5C 122.5,9.5 122.5,8.5 122.5,7.5 Z"/></g>
<g><path style="opacity:0.746" fill="#fefffe" d="M 131.5,7.5 C 134.247,7.18665 136.914,7.51998 139.5,8.5C 137.376,9.14941 135.376,9.98275 133.5,11C 136.882,11.1764 140.215,11.6764 143.5,12.5C 145.253,15.0048 146.753,17.6714 148,20.5C 149.442,17.9504 150.608,15.2837 151.5,12.5C 153.074,11.3691 154.741,11.2025 156.5,12C 153.872,16.7549 151.372,21.5882 149,26.5C 146.772,28.1134 144.272,28.78 141.5,28.5C 141.5,27.5 141.5,26.5 141.5,25.5C 142.833,25.5 144.167,25.5 145.5,25.5C 144.35,21.6569 142.683,17.9902 140.5,14.5C 138.257,13.5258 135.924,13.1924 133.5,13.5C 133.5,17.1667 133.5,20.8333 133.5,24.5C 132.167,24.5 130.833,24.5 129.5,24.5C 129.997,20.2408 129.331,16.2408 127.5,12.5C 129.552,11.3892 130.886,9.72254 131.5,7.5 Z"/></g>
<g><path style="opacity:0.745" fill="#6d63ff" d="M 22.5,8.5 C 22.5,9.16667 22.8333,9.5 23.5,9.5C 23.5,10.5 23.5,11.5 23.5,12.5C 22.448,12.3505 21.448,12.5172 20.5,13C 21.4061,14.6995 21.7394,16.5328 21.5,18.5C 20.5,17.1667 19.5,17.1667 18.5,18.5C 17.6615,13.3323 15.1615,12.3323 11,15.5C 10.5172,16.448 10.3505,17.448 10.5,18.5C 9.5,17.1667 8.5,17.1667 7.5,18.5C 7.85813,10.7751 11.6915,8.44181 19,11.5C 19.4828,10.552 19.6495,9.55198 19.5,8.5C 20.5,8.5 21.5,8.5 22.5,8.5 Z"/></g>
<g><path style="opacity:0.8" fill="#fefffe" d="M 63.5,11.5 C 67.5138,11.3345 71.5138,11.5012 75.5,12C 76,12.5 76.5,13 77,13.5C 77.4986,17.1516 77.6653,20.8183 77.5,24.5C 72.9382,24.5753 68.2715,24.2419 63.5,23.5C 62.359,21.5787 62.1923,19.5787 63,17.5C 66.7454,16.703 70.5787,16.203 74.5,16C 73.8333,15.3333 73.1667,14.6667 72.5,14C 69.0152,13.6737 65.6818,14.1737 62.5,15.5C 62.4326,14.0413 62.7659,12.7079 63.5,11.5 Z M 66.5,18.5 C 69.2469,18.1866 71.9135,18.52 74.5,19.5C 73.4729,21.024 71.9729,21.6906 70,21.5C 66.8051,22.0167 65.6384,21.0167 66.5,18.5 Z"/></g>
<g><path style="opacity:0.763" fill="#fefffe" d="M 88.5,11.5 C 92.5138,11.3345 96.5138,11.5012 100.5,12C 102.312,15.922 102.979,20.0887 102.5,24.5C 97.3722,24.8885 92.3722,24.3885 87.5,23C 86.233,21.2041 86.233,19.3707 87.5,17.5C 91.1667,16.8333 94.8333,16.1667 98.5,15.5C 97.4406,14.3036 96.1073,13.637 94.5,13.5C 92.2383,14.4669 89.905,15.1336 87.5,15.5C 87.4326,14.0413 87.7659,12.7079 88.5,11.5 Z M 91.5,18.5 C 93.8333,18.5 96.1667,18.5 98.5,18.5C 98.5,19.5 98.5,20.5 98.5,21.5C 95.7531,21.8134 93.0865,21.48 90.5,20.5C 90.8627,19.8165 91.1961,19.1499 91.5,18.5 Z"/></g>
<g><path style="opacity:0.722" fill="#fefffe" d="M 104.5,11.5 C 107.755,11.0136 110.422,12.0136 112.5,14.5C 114.592,11.8478 117.258,11.0145 120.5,12C 118.649,13.6837 116.982,15.5171 115.5,17.5C 117.167,19.5 118.833,21.5 120.5,23.5C 119.277,24.6139 117.944,24.7805 116.5,24C 115.315,22.647 113.981,21.4803 112.5,20.5C 111.019,21.4803 109.685,22.647 108.5,24C 106.741,24.7975 105.074,24.6309 103.5,23.5C 105.833,21.8333 107.833,19.8333 109.5,17.5C 107.062,16.0692 105.396,14.0692 104.5,11.5 Z"/></g>
<g><path style="opacity:0.654" fill="#fefffe" d="M 122.5,12.5 C 123.833,12.5 125.167,12.5 126.5,12.5C 126.5,16.5 126.5,20.5 126.5,24.5C 125.167,24.5 123.833,24.5 122.5,24.5C 122.5,20.5 122.5,16.5 122.5,12.5 Z"/></g>
<g><path style="opacity:0.745" fill="#6e64ff" d="M 2.5,7.5 C 3.83333,7.5 5.16667,7.5 6.5,7.5C 4.06454,10.3739 2.73121,13.7073 2.5,17.5C 1.5,17.5 0.5,17.5 -0.5,17.5C -0.5,15.5 -0.5,13.5 -0.5,11.5C 0.488369,10.205 1.48837,8.87165 2.5,7.5 Z"/></g>
<g><path style="opacity:0.745" fill="#6a5eff" d="M 23.5,9.5 C 23.5,9.16667 23.5,8.83333 23.5,8.5C 24.5,8.5 25.5,8.5 26.5,8.5C 27.7899,9.05773 28.6232,10.0577 29,11.5C 29.8119,15.6888 29.6453,19.6888 28.5,23.5C 27.791,22.596 26.791,22.2627 25.5,22.5C 27.1977,17.7343 26.5311,13.401 23.5,9.5 Z"/></g>
<g><path style="opacity:0.676" fill="#5649ff" d="M 10.5,18.5 C 13.1667,22.5 15.8333,22.5 18.5,18.5C 19.5,17.1667 20.5,17.1667 21.5,18.5C 21.0348,22.6294 18.7015,24.6294 14.5,24.5C 10.2985,24.6294 7.96518,22.6294 7.5,18.5C 8.5,17.1667 9.5,17.1667 10.5,18.5 Z"/></g>
<g><path style="opacity:0.733" fill="#5143ff" d="M -0.5,17.5 C 0.5,17.5 1.5,17.5 2.5,17.5C 2.64687,20.7916 3.64687,23.7916 5.5,26.5C 4.5,26.5 3.5,26.5 2.5,26.5C 1.27187,25.6935 0.271873,24.6935 -0.5,23.5C -0.5,21.5 -0.5,19.5 -0.5,17.5 Z"/></g>
<g><path style="opacity:0.592" fill="#3e2cff" d="M 25.5,22.5 C 26.791,22.2627 27.791,22.596 28.5,23.5C 24.5164,31.9799 17.8498,34.8132 8.5,32C 5.73995,30.8211 3.73995,28.9877 2.5,26.5C 3.5,26.5 4.5,26.5 5.5,26.5C 11.0471,30.2339 16.7137,30.4005 22.5,27C 23.8825,25.7292 24.8825,24.2292 25.5,22.5 Z"/></g>
</svg>
